<svg width="1200" height="1200" viewBox="0 0 1200 1200" fill="none" xmlns="http://www.w3.org/2000/svg">
<path d="M1000.85 173.061C1008.73 170.126 1014.94 167.089 1022.42 163.226C1022.54 169.819 1023.21 194.102 1021.94 200.071C1021.72 212.567 1018.31 238.919 1014.71 250.826C1013.1 259.576 1011.1 268.248 1008.7 276.814C1004.29 291.846 999.557 306.784 994.523 321.619C992.76 325.632 989.145 335.323 987.246 338.509C952.682 413.443 904.84 472.777 825.106 502.125C803.238 510.174 779.73 514.632 757.031 519.65C705.135 530.717 665.25 553.884 643.201 604.436C619.535 658.711 615.592 723.902 635.555 779.965C662.367 855.275 739.576 876.316 811.646 868.148C815.062 873.457 818.473 871.986 822.621 879.721C828.264 880.201 825 880.922 828.434 884.848C830.543 885.176 829.605 884.766 831.293 886.248C830.76 887.637 830.256 889.031 829.77 890.438C827.73 891.926 813.27 897.17 810.006 898.395C801.24 900.897 785.906 905.994 777.563 906.814C760.729 911.502 731.777 912.885 714.363 912.85C654.129 912.738 598.072 892.002 547.062 860.988C505.465 835.318 465.691 808.488 419.596 791.162C341.317 761.736 267.167 762.832 191.15 797.121C197.276 792.504 202.859 787.236 208.883 782.496C219.009 774.527 230.105 767.396 241.342 761.109C328.614 712.242 413.774 717.076 500.685 763.764C514.211 771.029 557.73 801.357 571.204 798.199C573.379 797.689 574.81 796.617 575.956 794.713C579.024 789.621 579.885 782.285 581.044 776.467C588.738 737.859 586.582 694.506 576.686 656.461C572.345 639.779 565.054 622.67 555.43 608.367C550.414 600.914 544.783 593.426 537.257 588.322C519.685 576.406 480.887 579.348 458.726 576.296C435.773 573.135 411.969 563.707 392.111 551.916C344.75 523.793 311.865 473.176 290.313 423.782C284.772 411.084 279.504 398.714 276.068 385.239C284.207 382.809 294.52 381.83 302.939 380.34C309.234 379.225 315.903 377.727 322.149 376.852C348.477 373.236 375.105 372.315 401.62 374.105C482.94 379.42 560.596 434.418 566.326 520.885C566.81 528.19 565.021 536.641 564.513 544.107C555.849 533.499 549.439 522.928 539.863 512.367C510.12 479.565 473.169 459.193 430.618 448.509C442.92 456.614 455.209 462.984 467.647 471.773C512.738 503.565 549.196 546.091 573.728 595.506C579.446 607.178 584.514 619.219 589.477 631.225C592.605 638.795 593.666 648.328 598.283 655.014C603.082 629.244 618.041 597.053 630.006 573.68C635.484 562.985 644.959 549.989 650.52 538.814C656.947 525.896 663.018 512.959 669.164 499.931C675.434 486.896 681.902 473.957 688.559 461.116C719.941 401.245 769.482 349.685 823.869 310.197C830.086 305.682 837.838 300.445 843.662 295.604C742.617 335.276 679.26 408.119 639.996 506.322C637.441 512.713 635.186 519.535 631.957 525.581L631.447 526.526C609.996 454.047 622.207 366.066 668.572 305.634C715.008 245.116 786.047 218.163 858.668 204.336C881.754 199.941 906.311 197.251 929.162 192.506C947.52 188.837 965.713 184.406 983.695 179.225C987.779 178.038 997.559 173.502 1000.85 173.061Z" fill="#41867A"/>
<path d="M1000.85 173.061C1008.73 170.126 1014.94 167.089 1022.42 163.226C1022.54 169.819 1023.21 194.102 1021.94 200.071C1021.69 198.36 1021.65 196.408 1021.57 194.665L1020.4 196.771L1019.81 196.68L1019.42 195.163C1014.74 191.341 1011.7 194.604 1011.48 184.836C1011.42 182.414 1010.74 177.55 1010.46 174.955L1012.58 173.696L1012.33 173.139C1010.48 173.883 1009 174.67 1007.03 174.731C1004.23 173.378 1003.84 172.981 1000.85 173.061Z" fill="#41867A"/>
<path d="M1008.7 276.814C1007.67 276.528 1007.03 276.308 1006.03 275.929C1005.11 273.391 1007.74 268.737 1007.34 266.342C1006.54 262.742 1003.75 261.482 1004.99 257.427C1006.37 252.961 1009.85 249.14 1014.71 250.826C1013.1 259.575 1011.1 268.247 1008.7 276.814Z" fill="#41867A"/>
<path d="M777.562 906.815C778.324 904.453 778.957 907.231 779.455 905.795C783.838 893.233 794.25 898.729 803.918 897.686C806.941 897.363 806.818 897.205 810.006 898.395C801.24 900.897 785.906 905.994 777.562 906.815Z" fill="#41867A"/>
<path d="M987.246 338.509C986.449 333.202 987.656 324.715 992.057 321.165L994.523 321.619C992.76 325.632 989.145 335.323 987.246 338.509Z" fill="#41867A"/>
<path d="M1012.92 452.389C1022.54 462.35 1029.03 473.145 1035.57 485.236C1061.33 532.852 1073.63 593.748 1072.73 647.771C1071.7 726.258 1046.62 802.541 1000.87 866.326C996.973 871.805 979.477 895.986 974.789 899.502C955.518 922.102 934.195 942.861 911.092 961.529C909.217 963.023 904.711 967.16 902.854 967.635C901.781 968.607 900.674 969.545 899.525 970.43C787.588 1056.26 636.621 1082.38 499.128 1064.72C404.609 1051.72 316.505 1009.54 247.106 944.062C235.721 933.498 216.302 914.115 206.885 901.916C204.367 899.578 199.024 892.758 196.677 889.857C183.366 873.381 171.986 855.732 161.045 837.621C165.626 832.857 177.353 825.346 183.485 823.055C184.851 819.832 211.83 809.15 215.894 807.732C222.936 804.363 229.143 802.623 236.689 800.596C292.406 785.631 355.549 790.869 409.318 810.861C454.725 827.742 492.671 855.885 534.125 880.031C600.791 919.066 662.045 938.396 739.354 932.865C776.068 930.521 811.998 921.182 845.203 905.35C923.215 867.779 983.332 801.053 1012.58 719.555C1037.04 652.283 1042.9 579.66 1029.52 509.341C1026.09 491.026 1020.94 469.261 1012.92 452.389Z" fill="#41867A"/>
<path d="M161.045 837.621C165.626 832.857 177.353 825.346 183.485 823.055L182.917 823.951C182.166 825.111 182.035 825.223 180.923 826.119C181.52 829.482 186.666 830.49 189.689 829.939C193.334 832.236 192.333 837.152 194.428 837.451C205.593 839.057 208.485 840.018 202.305 853.453C203.009 857.678 204.594 861.053 205.23 865.353C205.726 868.711 201.57 880.986 202.047 882.527C203.659 887.725 215.176 893.098 210.981 900.914C209.198 902.244 208.799 901.441 206.885 901.916C204.367 899.578 199.024 892.758 196.677 889.857C183.366 873.381 171.986 855.732 161.045 837.621Z" fill="#41867A"/>
<path d="M183.485 823.055C184.851 819.832 211.83 809.15 215.894 807.732C215.759 810.123 215.268 810.076 214.889 811.852C213.592 817.939 214.837 823.201 209.292 827.256L208.433 827.894C208.229 828.035 208.026 828.182 207.823 828.322C207.255 830.063 207.383 830.115 207.499 831.984C206.29 833.473 207.027 832.887 205.079 833.625C201.673 832.225 201.432 829.523 199.802 826.928C199.127 825.855 193.201 824.074 192.098 823.67C191.373 823.406 191.647 821.215 189.322 820.705C187.098 821.947 185.692 823.236 183.485 823.055Z" fill="#41867A"/>
<path d="M902.854 967.635C902.59 966.264 961.705 918.088 962.813 909.867L962.191 909.639C960.732 911.344 951.193 918.885 949.717 919.066C951.914 916.482 971.35 900.633 974.789 899.502C955.518 922.102 934.195 942.861 911.092 961.529C909.217 963.023 904.711 967.16 902.854 967.635Z" fill="#41867A"/>
<path d="M811.646 868.148C834.27 865.863 863.555 857.074 884.684 848.607C891.732 845.783 902.461 839.9 908.221 838.008C901.729 843.34 895.945 848.982 889.406 854.338C870.375 869.93 852.135 880.529 829.77 890.438C830.256 889.031 830.76 887.637 831.293 886.248C829.605 884.766 830.543 885.176 828.434 884.848C825 880.922 828.264 880.201 822.621 879.721C818.473 871.986 815.062 873.457 811.646 868.148Z" fill="#41867A"/>
</svg>
